<svg xmlns="http://www.w3.org/2000/svg" width="1200" height="800" viewBox="0 0 1200 800">
  <metadata><?xpacket begin="﻿" id="W5M0MpCehiHzreSzNTczkc9d"?>
<x:xmpmeta xmlns:x="adobe:ns:meta/" x:xmptk="Adobe XMP Core 5.6-c138 79.159824, 2016/09/14-01:09:01        ">
   <rdf:RDF xmlns:rdf="http://www.w3.org/1999/02/22-rdf-syntax-ns#">
      <rdf:Description rdf:about=""/>
   </rdf:RDF>
</x:xmpmeta>
                                                                                                    
                                                                                                    
                                                                                                    
                                                                                                    
                                                                                                    
                                                                                                    
                                                                                                    
                                                                                                    
                                                                                                    
                                                                                                    
                                                                                                    
                                                                                                    
                                                                                                    
                                                                                                    
                                                                                                    
                                                                                                    
                                                                                                    
                                                                                                    
                                                                                                    
                                                                                                    
                           
<?xpacket end="w"?></metadata>
<defs>
    <style>
      .cls-1 {
        fill: #e1ccff;
      }

      .cls-2 {
        fill: #ae94d4;
      }

      .cls-2, .cls-3, .cls-4, .cls-5 {
        fill-rule: evenodd;
      }

      .cls-3 {
        fill: #563687;
      }

      .cls-4 {
        fill: #39166e;
      }

      .cls-5 {
        fill: #fff;
        opacity: 0.2;
      }
    </style>
  </defs>
  <rect class="cls-1" x="-36" y="-41" width="1276" height="877"/>
  <path class="cls-2" d="M-80.367,292c65.565-9.227,187.19-33.945,251.067-11s268.376,69.648,336.089,52S720.933,226.336,787.865,226s295.285,43.836,342.1,44,121.48-22.859,132.03-37S1295,850,1295,850L-78.367,884S-145.932,301.227-80.367,292Z"/>
  <path class="cls-3" d="M-48.359,452C-19.117,412.5,53.59,335.727,90.678,344S200.919,495.82,257.723,495,413.194,364.469,534.8,376,878.74,578.234,1002.92,577,1281,471,1281,471l13,412L-92.371,902S-77.6,491.5-48.359,452Z"/>
  <path class="cls-4" d="M-13.905,596.312c28.686,16.5,118.35,58.058,216.863,50.948s147.392-45.352,226.171-75.923S642.291,630,776.3,642.265s242.823,11.4,303.423-23.976,112.47-11.145,130.3,2,12.1,269.725,12.1,269.725L-24.143,902S-42.591,579.813-13.905,596.312Z"/>
  <path class="cls-5" d="M68,371c16.007-12.511,37.786-13.255,74.233,51.5C177.937,485.93,204.41,489.766,227,512c-25.781-9.347-57.845-21.256-92.515-71.319C115.711,413.572,95.483,365.414,68,371ZM-10,610c52.787,30.937,133.6,55.574,184,57C130.836,686.9,53.63,683.4-8.818,635.022M486,404c21.053-8.018,94.584-24,241.363,79.83C822.075,550.83,915,579,915,579c-56.048,9.725-130.707-20.342-234-97C560.529,392.593,486,404,486,404ZM450,598c27.629-6.9,99.04.353,150,36,66.555,46.556,204,35,204,35-40.978,11.593-132.214,44.712-208.9-18.491C553.849,616.508,450,598,450,598Zm783,73c-45.93-42.14-94-43-94-43s43.56-14.488,100,36M86,293c32.932-3.68,61.393-4.635,166,38.157C330.076,363.1,448.322,360.112,446,361c-2.066.79-116.212,36-216.949-22.964C181,309.909,86,293,86,293Zm683.666-25.731c19.48-18.62,104.543-22.057,179.508-1.943C1057.9,294.5,1138,293,1138,293s-111.03,35.671-192.588-12.723C900.223,253.464,803.716,257.031,769.666,267.269Z"/>
</svg>
